<svg width="22" height="22" viewBox="0 0 22 22" fill="none" xmlns="http://www.w3.org/2000/svg">
<circle cx="11" cy="11" r="11" fill="#394A6D"/>
<path d="M13.1055 11C13.1055 12.1628 12.1628 13.1055 11 13.1055C9.83716 13.1055 8.89453 12.1628 8.89453 11C8.89453 9.83716 9.83716 8.89453 11 8.89453C12.1628 8.89453 13.1055 9.83716 13.1055 11Z" fill="white"/>
<path d="M15.924 7.27483C15.8227 7.00056 15.6613 6.75232 15.4515 6.54855C15.2477 6.33875 14.9996 6.17728 14.7252 6.07607C14.5026 5.98962 14.1683 5.88673 13.5524 5.8587C12.8863 5.82832 12.6865 5.82178 11 5.82178C9.31331 5.82178 9.11357 5.82816 8.44756 5.85854C7.83173 5.88673 7.49721 5.98962 7.27481 6.07607C7.00038 6.17728 6.75214 6.33875 6.54854 6.54855C6.33873 6.75232 6.17726 7.0004 6.07588 7.27483C5.98944 7.49739 5.88655 7.83191 5.85852 8.44774C5.82814 9.11375 5.82159 9.31349 5.82159 11.0002C5.82159 12.6867 5.82814 12.8864 5.85852 13.5526C5.88655 14.1685 5.98944 14.5028 6.07588 14.7254C6.17726 14.9998 6.33856 15.2479 6.54837 15.4516C6.75214 15.6615 7.00021 15.8229 7.27464 15.9241C7.49721 16.0107 7.83173 16.1136 8.44756 16.1417C9.11357 16.172 9.31314 16.1784 10.9998 16.1784C12.6867 16.1784 12.8864 16.172 13.5523 16.1417C14.1681 16.1136 14.5026 16.0107 14.7252 15.9241C15.2761 15.7116 15.7115 15.2762 15.924 14.7254C16.0104 14.5028 16.1133 14.1685 16.1415 13.5526C16.1719 12.8864 16.1782 12.6867 16.1782 11.0002C16.1782 9.31349 16.1719 9.11375 16.1415 8.44774C16.1134 7.83191 16.0106 7.49739 15.924 7.27483ZM11 14.2435C9.20857 14.2435 7.75636 12.7914 7.75636 11C7.75636 9.20859 9.20857 7.75655 11 7.75655C12.7913 7.75655 14.2435 9.20859 14.2435 11C14.2435 12.7914 12.7913 14.2435 11 14.2435ZM14.3717 8.38631C13.9531 8.38631 13.6137 8.04692 13.6137 7.62831C13.6137 7.2097 13.9531 6.87032 14.3717 6.87032C14.7903 6.87032 15.1297 7.2097 15.1297 7.62831C15.1295 8.04692 14.7903 8.38631 14.3717 8.38631Z" fill="white"/>
<path d="M11 0C4.9258 0 0 4.9258 0 11C0 17.0742 4.9258 22 11 22C17.0742 22 22 17.0742 22 11C22 4.9258 17.0742 0 11 0ZM17.2783 13.6041C17.2478 14.2765 17.1408 14.7356 16.9847 15.1374C16.6566 15.9859 15.9859 16.6566 15.1374 16.9847C14.7358 17.1408 14.2765 17.2476 13.6043 17.2783C12.9307 17.309 12.7156 17.3164 11.0002 17.3164C9.28461 17.3164 9.0696 17.309 8.39586 17.2783C7.72363 17.2476 7.2644 17.1408 6.86275 16.9847C6.44112 16.8261 6.05943 16.5775 5.74388 16.2561C5.42262 15.9407 5.17404 15.5589 5.01543 15.1374C4.85933 14.7358 4.75241 14.2765 4.72186 13.6043C4.69081 12.9306 4.68359 12.7154 4.68359 11C4.68359 9.28461 4.69081 9.06943 4.72169 8.39586C4.75224 7.72346 4.85899 7.2644 5.01509 6.86258C5.17371 6.44112 5.42245 6.05927 5.74388 5.74388C6.05927 5.42245 6.44112 5.17387 6.86258 5.01526C7.2644 4.85916 7.72346 4.75241 8.39586 4.72169C9.06943 4.69098 9.28461 4.68359 11 4.68359C12.7154 4.68359 12.9306 4.69098 13.6041 4.72186C14.2765 4.75241 14.7356 4.85916 15.1374 5.01509C15.5589 5.17371 15.9407 5.42245 16.2563 5.74388C16.5775 6.05943 16.8263 6.44112 16.9847 6.86258C17.141 7.2644 17.2478 7.72346 17.2785 8.39586C17.3092 9.06943 17.3164 9.28461 17.3164 11C17.3164 12.7154 17.3092 12.9306 17.2783 13.6041Z" fill="white"/>
</svg>
