<svg width="52" height="41" viewBox="0 0 52 41" fill="none" xmlns="http://www.w3.org/2000/svg">
<path d="M18.4 31.2C16.4 31.1 14 31.4 11.6 31C4.79998 29.8 0.0999766 23.8 0.699977 17C1.29998 10.3 6.99998 5.10001 13.8 5.30001C15.7 5.40001 16.9 4.90001 18.4 3.70001C23.4 -0.299987 30.2 0.100013 35 4.50001C35.7 5.10001 36.2 5.60001 37.3 5.50001C44.7 4.80001 51.1 10 51.7 17.1C52.3 24.4 46.8 30.8 39.4 31.1C37.5 31.2 36.4 31.8 35.5 33.3C33.9 35.8 31.9 38 29.3 39.6C28.6 40 27.8 40.5 27 40C26.1 39.5 26.2 38.7 26.2 37.8C26.3 36.2 26.3 34.5 26.4 32.9C26.5 31.6 26 31 24.6 31.1C22.6 31.2 20.7 31.2 18.4 31.2ZM29.9 34.9C31.3 33.7 32.4 32.6 33 31.2C34.3 28.5 36.2 27.6 39.2 27.7C43.3 27.9 46.2 25.6 47.8 21.7C49.3 18.2 48.4 14.1 45.6 11.4C42.6 8.50001 39.1 8.00001 35.2 9.30001C32.8 10.1 32.7 10.5 33.9 12.8C34.3 13.7 34.7 14.5 33.7 15.2C32.6 15.9 32.1 15 31.6 14.2C30.1 11.8 28 10.8 25.1 11.4C24.2 11.6 23.2 11.8 22.9 10.6C22.7 9.50001 23.5 9.10001 24.4 8.80001C25.7 8.50001 27 8.30001 28.4 8.80001C30.2 9.40001 31.6 8.10001 32.1 7.00001C32.6 6.00001 30.8 5.50001 29.9 5.10001C25.3 3.10001 20 5.00001 17.6 9.50001C16.9 10.8 16.6 11.7 18.5 12.4C20.3 13 21.3 14.5 22 16.3C22.3 17.1 22.3 17.8 21.4 18.2C20.6 18.6 20 18.2 19.6 17.5C17.2 13.6 15.8 13.4 12 16.1C11.3 16.6 10.7 16.8 9.99998 16.1C9.39998 15.5 9.59998 14.9 9.99998 14.3C10.7 13.3 11.7 12.7 12.8 12.1C14.1 11.4 14.3 10 14 9.00001C13.7 8.00001 12.5 8.60001 11.7 8.80001C6.89998 9.80001 3.39998 14.3 3.89998 18.8C4.39998 24.1 8.29998 27.7 13.5 27.8C17.9 27.9 22.3 27.8 26.7 27.8C28.3 27.8 29.3 28.4 29.4 30.1C29.5 31.6 29.7 33.1 29.9 34.9Z" fill="white"/>
<path d="M24.8 22.3C27.3 22.5 28.7 21.4 29 19C29.1 18 29.3 16.9 30.6 17.1C32 17.3 31.7 18.5 31.8 19.6C31.8 20.5 30.6 21.6 31.6 22.2C32.7 22.9 34.2 22.6 35.5 22C37.6 21 38.7 19.1 38.4 16.8C38.3 16.2 38.3 15.6 38.4 15C38.6 14 38.8 12.7 40.2 12.9C41.6 13.1 41.3 14.2 41.1 15.2C40.8 17.1 41.8 18.2 43.5 18.6C44.5 18.8 45.4 19.1 45.1 20.3C44.8 21.6 43.7 21.6 42.8 21.2C41.3 20.5 40.4 20.9 39.4 22.3C37.2 25.1 34.1 25.8 30.7 24.8C29.5 24.4 28.5 24.2 27.3 24.8C26.5 25.2 25.5 25.2 24.7 25C23.7 24.8 22.6 24.6 22.8 23.3C23 22.1 23.9 21.9 24.8 22.3Z" fill="white"/>
<path d="M12.8999 24.5C10.8999 24.4 9.19995 23.7 7.79995 22.2C7.19995 21.6 6.99995 20.9 7.59995 20.2C8.19995 19.5 8.89995 19.6 9.49995 20.2C11.3999 22 13.2999 22.3 15.4999 20.8C16.1999 20.3 16.8999 20.5 17.3999 21.2C17.7999 21.9 17.4999 22.5 16.9999 23C15.8999 24 14.4999 24.4 12.8999 24.5Z" fill="white"/>
</svg>
