<svg width="27" height="27" viewBox="0 0 27 27" fill="none" xmlns="http://www.w3.org/2000/svg">
<path d="M11.1817 15.8201C8.60463 13.2431 8.02275 10.666 7.89147 9.63355C7.85479 9.34806 7.95304 9.06175 8.15728 8.85894L10.2428 6.7744C10.5495 6.46781 10.604 5.99 10.374 5.62226L7.05356 0.466298C6.79917 0.0590944 6.27683 -0.0878695 5.84743 0.126943L0.516898 2.63743C0.169656 2.80841 -0.0345865 3.17735 0.00483895 3.56239C0.284144 6.21579 1.44093 12.7385 7.85097 19.149C14.261 25.5595 20.7828 26.7158 23.4376 26.9951C23.8226 27.0346 24.1916 26.8303 24.3625 26.4831L26.873 21.1525C27.087 20.7241 26.941 20.2031 26.5355 19.9483L21.3796 16.6287C21.012 16.3985 20.5343 16.4526 20.2274 16.7591L18.1429 18.8445C17.9401 19.0488 17.6538 19.147 17.3683 19.1104C16.3358 18.9791 13.7587 18.3972 11.1817 15.8201V15.8201Z" fill="#3353B0"/>
<path d="M21.415 14.4308C20.9008 14.4308 20.4839 14.014 20.4839 13.4998C20.4796 9.64522 17.3559 6.52154 13.5013 6.51718C12.9871 6.51718 12.5703 6.10035 12.5703 5.58617C12.5703 5.07198 12.9871 4.65515 13.5013 4.65515C18.3839 4.66054 22.3406 8.61727 22.346 13.4998C22.346 14.014 21.9291 14.4308 21.415 14.4308Z" fill="#3353B0"/>
<path d="M26.07 14.4307C25.5559 14.4307 25.139 14.0139 25.139 13.4997C25.1318 7.07538 19.9257 1.86921 13.5013 1.86203C12.9871 1.86203 12.5703 1.4452 12.5703 0.931016C12.5703 0.41683 12.9871 0 13.5013 0C20.9536 0.00820964 26.9928 6.04744 27.0011 13.4997C27.0011 13.7467 26.903 13.9835 26.7284 14.1581C26.5538 14.3327 26.317 14.4307 26.07 14.4307Z" fill="#3353B0"/>
</svg>
